<?xml version="1.0" encoding="utf-8"?>
 <svg viewBox="241.0833 384.5754 100 100" xmlns="http://www.w3.org/2000/svg">
  <g transform="matrix(1, 0, 0, 1, -21.06573486328125, 56.3803825378418)">
    <rect class="background" width="100" height="100" rx="16" ry="16" style="fill: rgb(255, 255, 255);" x="262.149"
      y="328.195" />
    <path class="highlighter"
      d="M 319.107 358.57 L 341.607 328.195 L 331.232 328.195 L 306.941 360.987 L 306.857 361.028 L 306.857 361.112 L 306.899 361.153 C 313.274 371.862 313.982 376.653 310.524 385.528 L 309.232 388.862 L 312.857 390.987 L 306.316 403.195 L 262.149 403.195 L 262.149 428.195 L 328.816 428.195 L 328.816 415.695 L 329.899 415.695 L 336.066 404.487 L 339.524 406.487 L 341.649 403.028 C 346.441 395.278 352.482 392.903 362.149 393.778 L 362.149 383.403 L 319.107 358.57 Z M 324.982 407.362 L 313.566 407.362 L 320.107 395.153 L 328.899 400.278 L 324.982 407.362 Z M 336.857 395.278 L 319.482 385.153 C 321.399 378.862 321.274 373.737 319.607 368.487 L 350.066 386.07 C 344.816 387.528 340.524 390.487 336.857 395.278 Z"
      style="fill: rgb(177, 156, 217);" />
    <path class="sparkle"
      d="M 284.145 347.762 L 287.25 357.001 L 296.565 360.081 L 287.25 363.16 L 284.145 372.399 L 281.039 363.16 L 271.724 360.081 L 281.039 357.001 L 284.145 347.762 Z"
      style="fill: #f2eba7;" />
    <path class="sparkle"
      d="M 344.503 341.266 L 346.587 347.516 L 352.837 349.6 L 346.587 351.683 L 344.503 357.933 L 342.42 351.683 L 336.17 349.6 L 342.42 347.516 L 344.503 341.266 Z"
      style="fill: #f2eba7;" />
    <path class="sparkle"
      d="M 351.514 405.318 L 353.597 411.568 L 359.847 413.651 L 353.597 415.735 L 351.514 421.985 L 349.431 415.735 L 343.181 413.651 L 349.431 411.568 L 351.514 405.318 Z"
      style="fill: #f2eba7;" />
  </g>
</svg>