<svg fill="none" height="24" viewBox="0 0 24 24" width="24" xmlns="http://www.w3.org/2000/svg"><g fill="#292d32"><path d="m15.3909 5.21 1.41 2.82c.19.39.7.76 1.13.84l2.55.42c1.63.27 2.01 1.45.84 2.63l-1.99 1.99c-.33.33-.52.98-.41 1.45l.57 2.46c.45 1.94-.59 2.7-2.3 1.68l-2.39-1.42c-.43-.26-1.15-.26-1.58 0l-2.39 1.42c-1.70999 1.01-2.74997.26-2.29997-1.68l.57-2.46c.11-.46-.08-1.11-.41-1.45l-1.98999-1.99c-1.17-1.17-.79-2.35.84-2.63l2.54996-.42c.43-.07.94-.45 1.13-.84l1.41-2.82c.75-1.53 1.99-1.53 2.76 0z"/><path d="m8 5.75h-6c-.41 0-.75-.34-.75-.75s.34-.75.75-.75h6c.41 0 .75.34.75.75s-.34.75-.75.75z" opacity=".4"/><path d="m5 19.75h-3c-.41 0-.75-.34-.75-.75s.34-.75.75-.75h3c.41 0 .75.34.75.75s-.34.75-.75.75z" opacity=".4"/><path d="m3 12.75h-1c-.41 0-.75-.34-.75-.75s.34-.75.75-.75h1c.41 0 .75.34.75.75s-.34.75-.75.75z" opacity=".4"/></g></svg>