<svg viewBox="0 0 869.262 1063.18" xmlns="http://www.w3.org/2000/svg"><path d="M656.862 1045.333H212.417c-64.384 0-116.984-50.45-120.426-113.973l-.012-.306-41.142-735.87h767.59l-40.96 736.007c-3.503 63.765-56.062 114.143-120.388 114.143h-.228.012zm-533.845-781.88l37.137 663.915c1.444 27.738 24.28 49.685 52.245 49.698h444.416c27.92-.01 50.73-21.882 52.24-49.428l.007-.134 37.183-664.053zm746.245 0H0v-68.268h869.262zM347.705 21.332h173.852c66.828.078 120.982 54.23 121.06 121.052v121.067H226.645v-121.06c.078-66.828 54.23-120.982 121.052-121.06h.007zM574.35 195.185v-52.793c-.026-29.146-23.647-52.767-52.79-52.793H347.705c-29.146.025-52.767 23.646-52.793 52.79v52.795zM468.764 881.038h-68.267V359.48h68.267zm173.853 0H574.35V359.48h68.267zm-347.705 0h-68.267V359.48h68.267z"/></svg>