<svg fill="none" height="15" viewBox="0 0 15 15" width="15" xmlns="http://www.w3.org/2000/svg">
    <path clip-rule="evenodd"
        d="m4.49999 2.5c0-.55228.44771-1 1-1 .55228 0 1 .44772 1 1s-.44772 1-1 1c-.55229 0-1-.44772-1-1zm4 0c0-.55228.44771-1 1-1 .55231 0 1.00001.44772 1.00001 1s-.4477 1-1.00001 1c-.55229 0-1-.44771-1-1zm-4.00001 5c0-.55228.44772-1 1-1 .55229 0 1 .44772 1 1s-.44771 1-1 1c-.55228 0-1-.44772-1-1zm4 0c0-.55229.44772-1 1.00001-1 .55231 0 1.00001.44772 1.00001 1s-.4477 1-1.00002 1c-.55228 0-1-.44772-1-1zm-4 5c0-.5523.44772-1 1-1 .55229 0 1 .4477 1 1s-.44771 1-1 1c-.55228 0-1-.4477-1-1zm4 0c0-.5523.44772-1 1-1 .55232 0 1.00002.4477 1.00002 1s-.4477 1-1.00002 1c-.55228 0-1-.4477-1-1z"
        fill="#b2b2b2" fill-rule="evenodd" />
</svg>