<svg fill="none" height="24" viewBox="0 0 24 24" width="24" xmlns="http://www.w3.org/2000/svg"><g fill="#292d32"><path d="m17.2902 4.13998-.07 3.79c-.01.52.3201 1.21.7401 1.52l2.48 1.88002c1.59 1.2 1.33 2.67-.57 3.27l-3.23 1.01c-.54.17-1.11.76-1.25 1.31l-.77 2.94c-.61 2.32-2.1301 2.55-3.3901.51l-1.75996-2.85c-.32-.52-1.08-.91-1.68-.88l-3.33996.17c-2.39.12-3.07001-1.26-1.51001-3.08l1.97998-2.3c.37-.43.53999-1.23.36999-1.77001l-1.00995-3.23001c-.59-1.9.46999-2.94999 2.35999-2.32999l2.95001.97c.50001.16 1.25001.04999 1.67001-.26001l3.08-2.22c1.66-1.2 2.9899-.5 2.9499 1.55z"/><path d="m21.4403 20.4699-3.03-3.03c-.29-.29-.77-.29-1.06 0s-.29.77 0 1.06l3.03 3.03c.15.15.34.22.53.22s.38-.07.53-.22c.29-.29.29-.77 0-1.06z" opacity=".4"/></g></svg>